<svg xmlns="http://www.w3.org/2000/svg" viewBox="0 0 1200 630" width="1200" height="630">
  <defs>
    <radialGradient id="g1" cx="50%" cy="40%" r="60%">
      <stop offset="0%" stop-color="#D4FF3B" stop-opacity="0.15"/>
      <stop offset="100%" stop-color="#D4FF3B" stop-opacity="0"/>
    </radialGradient>
    <linearGradient id="ibg" x1="0" y1="0" x2="1" y2="1">
      <stop offset="0%" stop-color="#E9FF8F"/>
      <stop offset="100%" stop-color="#B8E81C"/>
    </linearGradient>
  </defs>

  <rect width="1200" height="630" fill="#0A0A0A"/>
  <ellipse cx="600" cy="280" rx="500" ry="400" fill="url(#g1)"/>

  <!-- Brand centered -->
  <g transform="translate(600, 80)" text-anchor="middle">
    <rect x="-32" y="0" width="64" height="64" rx="16" fill="url(#ibg)"/>
    <path d="M5 4L-12 24h10l-3 18L13 20H3l3-16z" fill="#0A0A0A"/>
    <text x="0" y="105"
          font-family="Archivo, 'Helvetica Neue', Arial, sans-serif"
          font-weight="800" font-size="28"
          fill="#F5EADB"
          text-anchor="middle">Pocket Customer</text>
  </g>

  <!-- Headline centered -->
  <text x="600" y="280"
        font-family="Archivo, 'Helvetica Neue', Arial, sans-serif"
        font-weight="900" font-size="82"
        fill="#F5EADB" text-anchor="middle"
        letter-spacing="-2">STOP PRACTISING</text>
  <text x="600" y="375"
        font-family="'Instrument Serif', Georgia, serif"
        font-style="italic" font-size="95"
        fill="#D4FF3B" text-anchor="middle"
        letter-spacing="-2">on real</text>
  <text x="600" y="460"
        font-family="Archivo, 'Helvetica Neue', Arial, sans-serif"
        font-weight="900" font-size="82"
        fill="#F5EADB" text-anchor="middle"
        letter-spacing="-2">CUSTOMERS.</text>

  <!-- Equalizer bars at bottom -->
  <g opacity="0.5">
    <rect x="200" y="520" width="16" height="70" rx="4" fill="#D4FF3B"/>
    <rect x="224" y="490" width="16" height="100" rx="4" fill="#D4FF3B"/>
    <rect x="248" y="530" width="16" height="60" rx="4" fill="#FF5F57"/>
    <rect x="272" y="480" width="16" height="110" rx="4" fill="#D4FF3B"/>
    <rect x="296" y="510" width="16" height="80" rx="4" fill="#D4FF3B"/>
    <rect x="320" y="470" width="16" height="120" rx="4" fill="#D4FF3B"/>
    <rect x="344" y="520" width="16" height="70" rx="4" fill="#FF5F57"/>
    <rect x="368" y="490" width="16" height="100" rx="4" fill="#D4FF3B"/>
    <rect x="392" y="540" width="16" height="50" rx="4" fill="#D4FF3B"/>
    <rect x="416" y="480" width="16" height="110" rx="4" fill="#D4FF3B"/>
    <rect x="440" y="500" width="16" height="90" rx="4" fill="#FF5F57"/>
    <rect x="464" y="470" width="16" height="120" rx="4" fill="#D4FF3B"/>
    <rect x="488" y="510" width="16" height="80" rx="4" fill="#D4FF3B"/>
    <rect x="512" y="490" width="16" height="100" rx="4" fill="#D4FF3B"/>
    <rect x="536" y="530" width="16" height="60" rx="4" fill="#D4FF3B"/>
    <rect x="560" y="475" width="16" height="115" rx="4" fill="#D4FF3B"/>
    <rect x="584" y="500" width="16" height="90" rx="4" fill="#FF5F57"/>
    <rect x="608" y="480" width="16" height="110" rx="4" fill="#D4FF3B"/>
    <rect x="632" y="520" width="16" height="70" rx="4" fill="#D4FF3B"/>
    <rect x="656" y="490" width="16" height="100" rx="4" fill="#D4FF3B"/>
    <rect x="680" y="470" width="16" height="120" rx="4" fill="#FF5F57"/>
    <rect x="704" y="510" width="16" height="80" rx="4" fill="#D4FF3B"/>
    <rect x="728" y="530" width="16" height="60" rx="4" fill="#D4FF3B"/>
    <rect x="752" y="480" width="16" height="110" rx="4" fill="#D4FF3B"/>
    <rect x="776" y="500" width="16" height="90" rx="4" fill="#D4FF3B"/>
    <rect x="800" y="475" width="16" height="115" rx="4" fill="#FF5F57"/>
    <rect x="824" y="520" width="16" height="70" rx="4" fill="#D4FF3B"/>
    <rect x="848" y="490" width="16" height="100" rx="4" fill="#D4FF3B"/>
    <rect x="872" y="510" width="16" height="80" rx="4" fill="#D4FF3B"/>
    <rect x="896" y="470" width="16" height="120" rx="4" fill="#D4FF3B"/>
    <rect x="920" y="530" width="16" height="60" rx="4" fill="#FF5F57"/>
    <rect x="944" y="490" width="16" height="100" rx="4" fill="#D4FF3B"/>
    <rect x="968" y="510" width="16" height="80" rx="4" fill="#D4FF3B"/>
  </g>

  <text x="600" y="600"
        font-family="'JetBrains Mono', monospace"
        font-size="13"
        fill="#52525B" text-anchor="middle"
        letter-spacing="2">POWERED BY PERFORMOS</text>
</svg>
